Coordinates
version=1
nRows=23
nColumns=30
inDegrees=yes

Units are S.I. units (second, meters, Newtons, ...)
Angles are in degrees.

endheader
time	floatyaw	floatroll	floatpitch	floatx	floaty	floatz	pro_sup_l	deviation_l	flexion_l	cmc_flexion_l	cmc_abduction_l	mp_flexion_l	ip_flexion_l	2mcp_flexion_l	2mcp_abduction_l	2pm_flexion_l	2md_flexion_l	3mcp_flexion_l	3mcp_abduction_l	3pm_flexion_l	3md_flexion_l	4mcp_flexion_l	4mcp_abduction_l	4pm_flexion_l	4md_flexion_l	5mcp_flexion_l	5mcp_abduction_l	5pm_flexion_l	5md_flexion_l
-1.495000	-160.147433	-5.066637	-73.570646	0.076482	-0.181456	-0.016248	98.899986	3.337254	1.384885	17.746000	9.919155	-25.575405	-43.136874	27.297384	6.413688	43.357035	29.380264	23.676979	3.842968	42.349090	27.612737	11.882910	-4.147448	50.531660	34.148222	-0.468267	-7.606325	59.216593	40.925413
-1.485000	-160.147433	-5.066637	-73.570646	0.076482	-0.181455	-0.016247	98.899553	3.336302	1.394655	17.730211	9.923694	-25.576738	-43.137478	27.280794	6.418904	43.360730	29.387721	23.658630	3.844836	42.351674	27.621098	11.857606	-4.144938	50.548695	34.156079	-0.503377	-7.611292	59.265635	40.945252
-1.475000	-160.147433	-5.066637	-73.570646	0.076483	-0.181452	-0.016247	98.899061	3.335365	1.406851	17.718292	9.931529	-25.579621	-43.117835	27.261747	6.423441	43.364556	29.403673	23.636501	3.845297	42.356707	27.638409	11.829087	-4.143301	50.566569	34.170587	-0.541101	-7.616459	59.315775	40.972845
-1.465000	-160.147433	-5.066637	-73.570646	0.076483	-0.181448	-0.016246	98.898619	3.334413	1.419444	17.708292	9.938728	-25.585703	-43.085228	27.243383	6.428087	43.368874	29.426292	23.614532	3.844711	42.363897	27.661619	11.800738	-4.143188	50.585644	34.190381	-0.576202	-7.621308	59.360092	41.003396
-1.455000	-160.147433	-5.066637	-73.570646	0.076483	-0.181440	-0.016246	98.899680	3.333825	1.431827	17.697276	9.939860	-25.593509	-43.047929	27.227560	6.433649	43.371854	29.451719	23.595879	3.843176	42.372238	27.686467	11.775165	-4.144479	50.604897	34.212837	-0.605325	-7.624030	59.392903	41.031497
-1.445000	-160.147433	-5.066637	-73.570646	0.076483	-0.181427	-0.016245	98.904349	3.334443	1.444283	17.683192	9.932134	-25.599067	-43.012067	27.215046	6.440176	43.370560	29.475462	23.582062	3.840557	42.380505	27.709035	11.754206	-4.146630	50.621970	34.234663	-0.627105	-7.622390	59.410819	41.052684
-1.435000	-160.147433	-5.066637	-73.570646	0.076484	-0.181410	-0.016244	98.913847	3.337067	1.456843	17.665824	9.919278	-25.597726	-42.979598	27.206078	6.446895	43.363028	29.494154	23.572864	3.836817	42.388131	27.727272	11.739002	-4.149165	50.634521	34.253021	-0.641618	-7.615037	59.413206	41.064468
-1.425000	-160.147433	-5.066637	-73.570646	0.076485	-0.181390	-0.016242	98.927392	3.341769	1.468428	17.646510	9.911262	-25.586864	-42.949193	27.200802	6.452776	43.349858	29.506601	23.567094	3.832400	42.395560	27.741373	11.729959	-4.151906	50.641742	34.266488	-0.649619	-7.602300	59.401941	41.066460
-1.415000	-160.147433	-5.066637	-73.570646	0.076486	-0.181372	-0.016239	98.942437	3.347612	1.476931	17.627054	9.918714	-25.568194	-42.919956	27.199573	6.457171	43.334036	29.513242	23.563860	3.828326	42.403527	27.752489	11.726820	-4.154834	50.644779	34.275090	-0.651758	-7.586050	59.380581	41.059610
-1.405000	-160.147433	-5.066637	-73.570646	0.076487	-0.181361	-0.016238	98.956210	3.353123	1.480180	17.608583	9.945834	-25.547897	-42.894980	27.203211	6.460025	43.319119	29.514446	23.563461	3.825866	42.411867	27.760799	11.728994	-4.157826	50.645878	34.279418	-0.647895	-7.568927	59.353211	41.045112
-1.395000	-160.147433	-5.066637	-73.570646	0.076487	-0.181357	-0.016240	98.967393	3.357228	1.477178	17.591058	9.987473	-25.533902	-42.881339	27.213003	6.461652	43.307166	29.509254	23.567144	3.825943	42.419097	27.764718	11.735867	-4.160617	50.647129	34.279739	-0.636920	-7.553422	59.323343	41.023837
-1.385000	-160.147433	-5.066637	-73.570646	0.076485	-0.181360	-0.016244	98.976632	3.359893	1.468898	17.573702	10.032539	-25.531851	-42.885902	27.230027	6.462433	43.297851	29.495948	23.575731	3.828601	42.423265	27.762100	11.746563	-4.162987	50.649777	34.276036	-0.617718	-7.541139	59.293229	40.996851
-1.375000	-160.147433	-5.066637	-73.570646	0.076482	-0.181366	-0.016250	98.985497	3.361920	1.458230	17.555962	10.070633	-25.542309	-42.909759	27.253799	6.462723	43.289229	29.474284	23.588013	3.832903	42.423397	27.752561	11.759116	-4.164931	50.654346	34.269036	-0.591152	-7.532373	59.263895	40.966687
-1.365000	-160.147433	-5.066637	-73.570646	0.076480	-0.181370	-0.016256	98.994854	3.364134	1.449079	17.538190	10.096930	-25.560781	-42.945287	27.281163	6.462920	43.279544	29.447646	23.600185	3.837365	42.420372	27.738991	11.769891	-4.166608	50.661118	34.261143	-0.561598	-7.526161	59.235896	40.938151
-1.355000	-160.147433	-5.066637	-73.570646	0.076479	-0.181370	-0.016261	99.004074	3.366706	1.444974	17.521417	10.112868	-25.580137	-42.978338	27.306621	6.463462	43.268866	29.422995	23.607098	3.840678	42.416553	27.726754	11.774314	-4.168150	50.670352	34.256020	-0.536249	-7.520937	59.210283	40.917399
-1.345000	-160.147433	-5.066637	-73.570646	0.076479	-0.181366	-0.016264	99.011667	3.369139	1.447704	17.506381	10.123624	-25.593889	-42.994790	27.324467	6.464657	43.259405	29.407953	23.604888	3.842307	42.414493	27.720828	11.768976	-4.169514	50.682023	34.256627	-0.521912	-7.515593	59.189046	40.909315
-1.335000	-160.147433	-5.066637	-73.570646	0.076480	-0.181358	-0.016266	99.016675	3.370837	1.456544	17.492697	10.134803	-25.598749	-42.987756	27.331604	6.466459	43.254256	29.406603	23.593415	3.842610	42.415591	27.722751	11.753808	-4.170519	50.695399	34.263016	-0.521242	-7.510346	59.174747	40.914798
-1.325000	-160.147433	-5.066637	-73.570646	0.076481	-0.181350	-0.016267	99.019488	3.371642	1.468433	17.478900	10.150201	-25.595596	-42.961185	27.329309	6.468364	43.255440	29.416868	23.576867	3.842486	42.419464	27.729502	11.732750	-4.170978	50.708915	34.271687	-0.531103	-7.506807	59.169624	40.930052
-1.315000	-160.147433	-5.066637	-73.570646	0.076483	-0.181341	-0.016269	99.021167	3.371754	1.479157	17.463210	10.171276	-25.588695	-42.927861	27.322770	6.469564	43.262531	29.431372	23.562032	3.842809	42.424172	27.735122	11.712263	-4.170797	50.720467	34.277245	-0.544505	-7.507094	59.174756	40.948643
-1.305000	-160.147433	-5.066637	-73.570646	0.076484	-0.181336	-0.016273	99.021758	3.371067	1.485108	17.444229	10.197830	-25.583557	-42.903078	27.318538	6.469322	43.272708	29.441376	23.555159	3.843995	42.427021	27.734090	11.698457	-4.169942	50.727874	34.275437	-0.554976	-7.512491	59.189656	40.965064
-1.295000	-160.147433	-5.066637	-73.570646	0.076485	-0.181334	-0.016278	99.019283	3.368673	1.484829	17.421084	10.228676	-25.584266	-42.897517	27.321211	6.467394	43.282186	29.441400	23.559018	3.845889	42.425763	27.724425	11.694399	-4.168374	50.729343	34.265613	-0.560393	-7.522544	59.212364	40.977430
-1.285000	-160.147433	-5.066637	-73.570646	0.076485	-0.181337	-0.016284	99.010861	3.363302	1.479548	17.393426	10.261393	-25.591616	-42.913027	27.331074	6.464244	43.288231	29.431823	23.571492	3.847949	42.420025	27.708808	11.699017	-4.166066	50.724006	34.251016	-0.563663	-7.535190	59.239938	40.987596
-1.275000	-160.147433	-5.066637	-73.570646	0.076486	-0.181343	-0.016291	98.995550	3.354617	1.472479	17.361837	10.291588	-25.603118	-42.943144	27.343955	6.460876	43.290668	29.418201	23.586280	3.849546	42.412337	27.693258	11.708002	-4.163113	50.712484	34.236812	-0.570058	-7.547805	59.269166	40.998872
